<?xml version="1.0" encoding="UTF-8"?>
<!DOCTYPE svg PUBLIC "-//W3C//DTD SVG 1.1//EN" "http://www.w3.org/Graphics/SVG/1.1/DTD/svg11.dtd">
<!-- Creator: CorelDRAW 2021.5 -->
<svg xmlns="http://www.w3.org/2000/svg" xml:space="preserve" width="346.795mm" height="346.795mm" version="1.1" style="shape-rendering:geometricPrecision; text-rendering:geometricPrecision; image-rendering:optimizeQuality; fill-rule:evenodd; clip-rule:evenodd"
viewBox="0 0 34679.46 34679.46"
 xmlns:xlink="http://www.w3.org/1999/xlink"
 xmlns:xodm="http://www.corel.com/coreldraw/odm/2003">
 <defs>
  <style type="text/css">
   <![CDATA[
    .fil0 {fill:#000000}
   ]]>
  </style>
 </defs>
 <g id="Слой_x0020_1">
  <metadata id="CorelCorpID_0Corel-Layer"/>
  <path class="fil0" d="M5568.14 18552.29l0 7466.87c0,1156.66 643.6,2169.26 1590.8,2699.71 721.43,21.53 1594.93,-155.65 2587.94,-513.06 2025.2,-727.23 4543.87,-2200.45 7298.24,-4263.47 22.63,-15.45 53.54,-11.59 70.1,10.77 15.73,19.31 12.69,49.67 -5.8,66.23 -774.97,739.93 -1548.84,1439.83 -2311.4,2097.24 -776.91,666.79 -1543.05,1289.97 -2291.81,1863.47l0 0 -437.16 328.98 0 1.11 -1.11 0c-374.79,281.23 -746.55,548.11 -1111.68,801.19l9546.44 0c706.81,-813.89 666.79,-2249.03 0,-4102.84 -727.5,-2025.21 -2200.45,-4543.88 -4263.74,-7299.35 -16.56,-21.25 -11.6,-53.54 10.76,-70.1 20.42,-15.45 48.85,-12.69 66.24,5.8l0 0c739.92,776.08 1440.93,1549.12 2096.13,2311.4 649.4,755.66 1256.02,1500.55 1816,2228.61 969.55,-1888.87 1594.66,-3565.22 1817.66,-4919.5 216.1,-1308.73 55.48,-2312.5 -532.66,-2913.33 -791.53,-808.92 -2271.38,-796.23 -4208.82,-100.18 -2024.1,728.33 -4543.04,2200.45 -7298.24,4263.47 -21.52,16.55 -53.54,12.69 -70.1,-9.66 -14.63,-20.43 -12.69,-49.68 5.8,-66.24l0 0c775.8,-739.93 1548.84,-1440.11 2311.4,-2096.13 754.55,-649.4 1500.27,-1256.03 2229.44,-1816.01 -1890.8,-969.54 -3566.33,-1594.66 -4919.77,-1817.66 -1309.29,-216.1 -2313.34,-56.57 -2913.89,531.56 -809.2,791.53 -796.5,2271.66 -100.46,4209.1 727.5,2025.2 2200.46,4543.87 4263.74,7298.23 16.56,22.36 11.6,53.55 -10.76,70.11 -20.42,15.45 -48.85,12.69 -66.24,-4.97 -739.09,-775.81 -1439,-1548.85 -2095.3,-2311.41 -667.89,-776.9 -1291.07,-1543.05 -1864.58,-2292.63l0 0 -330.91 -437.17 0 0 0 -1.1c-308.55,-412.88 -599.72,-818.86 -876.26,-1219.04zm23543.19 -12984.15l-20451.02 0c-1700.91,0 -3092.17,1391.25 -3092.17,3092.17l0 687.49c559.7,85.55 1180.95,251.15 1853.81,489.6 2118.49,751.79 4757.22,2237.44 7590.24,4288.86 2301.74,-1715.54 4420.5,-2942.31 6138.81,-3550.87 1678.56,-595.85 2981.22,-602.75 3710.39,97.43 825.75,792.64 792.64,2377.64 56.57,4452.24 -752.62,2118.77 -2238.26,4757.22 -4289.68,7589.41 1715.54,2303.68 2942.31,4421.33 3551.69,6140.74 30.08,85.83 59.34,171.39 86.66,256.12l1751.42 0c1700.92,0 3093.28,-1391.26 3093.28,-3092.17l0 -20451.02z"/>
 </g>
</svg>
