<svg 
    width="36" 
    height="36"  
    xml:space="preserve"
    version="1.1"
    viewBox="0 0 308.91 308.91"
    xmlns="http://www.w3.org/2000/svg"
    xmlns:xlink="http://www.w3.org/1999/xlink">
    <path fill="#333271" d="M138.12 40.72c46.52,0 86.96,26.05 107.53,64.35 -8.64,11.14 -18.39,23.03 -28.9,35.23 10.54,-25.45 12.21,-44.93 2.73,-54.04 -15.13,-14.53 -54.92,0.97 -102.14,36.21 -25.6,-18.56 -49.67,-32.69 -70.01,-41.23 22.33,-24.88 54.73,-40.53 90.79,-40.53zm117.81 90.28c2.71,10.11 4.17,20.74 4.17,31.7 0,5.62 -0.38,11.14 -1.12,16.56l-0.01 0.11 -0.06 0.43 -0.05 0.38 -0.01 0.05 -0.06 0.43 -0.19 1.29 -0.01 0.06 -0.06 0.37 -0.07 0.42 -0.02 0.12 -0.06 0.31 -0.07 0.43 -0.03 0.17 -0.05 0.25 -0.08 0.42 -0.24 1.27 -0.08 0.42c-3.05,15.67 -9.13,30.24 -17.61,43.11l0.1 0c-8.71,13.33 -19.95,24.86 -33.05,33.89 -6.96,-15.05 -17.56,-32.29 -31.18,-50.68 26.16,-23.17 54.83,-51.8 79.84,-81.51zm-182.73 101.7c-12.13,-16.21 -69.42,-94.85 -43.28,-120.45 13.01,-12.73 43.58,-6.6 82.87,13.67 -15.43,11.81 -31.58,25.65 -47.87,41.18 16.71,-12.51 95,-69.27 120.44,-43.28 9.04,9.22 8.57,27.29 0.31,51.04 -7.03,7.5 -14.22,14.96 -21.47,22.27 -10.04,-12.49 -21.33,-25.36 -33.68,-38.31 5.72,7.63 18.26,24.08 29.23,42.78 -11.42,11.38 -22.96,22.35 -34.33,32.54 -16.73,11.76 -35.05,23.07 -53.47,31.05 -34.76,-22.49 -55.81,-61.33 -55.81,-102.48l0 -0.01c16.6,24.88 36.5,48.44 57.06,70zm95.73 -13.93c5.13,10.74 9.01,21.58 10.24,31.41 4.87,38.85 -54.41,40.94 -87.63,26.51 28.03,-17.91 55.25,-39.35 68.19,-50.12 3.01,-2.51 6.09,-5.11 9.2,-7.81z"/>
    <path fill="#333271" d="M284.81 65.4c-30.47,57.68 -80.01,104.59 -130.04,146.24 -24.04,20.01 -97.35,76.83 -133.63,79.48 -6.23,0.45 -10.66,-0.87 -13.44,-3.6 -3.16,-3.1 -4.32,-8.01 -3.72,-14.29 1.13,-11.74 8.82,-27.53 21.37,-44.04 1.51,-2 3.13,-1.96 3.61,0.08 0.48,2.04 -0.35,5.32 -1.87,7.31 -10.4,13.69 -16.68,25.74 -17.44,33.6 -0.31,3.18 0.43,5.81 2.33,7.68 2.27,2.23 6.06,3.3 11.55,2.9 61.94,-4.51 218.9,-174.99 237.69,-227.08 3.23,-6.51 11.14,-9.17 17.65,-5.94 6.51,3.23 9.17,11.14 5.94,17.65z"/>
    <polygon fill="#EF7F1A" points="287.68,9.12 292.67,13.87 299.56,14.04 299.72,20.92 304.48,25.91 299.72,30.9 299.56,37.79 292.67,37.95 287.68,42.71 282.7,37.95 275.81,37.79 275.64,30.9 270.89,25.91 275.64,20.92 275.81,14.04 282.7,13.87 "/>
</svg>